<svg xmlns="http://www.w3.org/2000/svg" aria-hidden="true" style="position:absolute;width:0;height:0;overflow:hidden"><defs><symbol id="icon-antenna" viewBox="0 0 32 32"><path fill="#212121" d="m30.775 22.099-8.444-8.506.937-4.616c.225.09.485.144.758.146h.033a2.16 2.16 0 1 0-2.029-1.42l-.005-.015-4.96.606L8.974.161a.53.53 0 0 0-.377-.16.536.536 0 0 0-.373.155L6.712 1.66a.535.535 0 0 0 0 .754l.814.825C6.383 5.301 5.71 7.761 5.71 10.378c0 4.106 1.656 7.825 4.336 10.526l-.001-.001a.49.49 0 0 0 .146.097 2.986 2.986 0 0 0-.052.546v6.188h-6.4A2.67 2.67 0 0 0 1.071 30.4v1.067c0 .295.239.534.534.534H26.14a.534.534 0 0 0 .533-.534V30.4a2.67 2.67 0 0 0-2.666-2.667h-6.401v-2.742a14.79 14.79 0 0 0 10.167-1.502l-.077.039.818.823a.534.534 0 0 0 .376.16.536.536 0 0 0 .373-.155l1.512-1.504a.535.535 0 0 0 0-.754zM23.281 6.234a1.067 1.067 0 1 1 .752 1.824h-.004a1.066 1.066 0 0 1-.747-1.823h-.002zm-1.255 3.504-.598 2.946-1.175-1.183 1.774-1.763zm-.606-.902-1.92 1.909-1.486-1.494 3.406-.416zm2.586 19.966a1.6 1.6 0 0 1 1.6 1.6v.534H2.138v-.534a1.6 1.6 0 0 1 1.6-1.6h20.268zm-7.467-2.134v1.067h-5.334v-1.067h5.334zm-5.334-1.066v-4.054c0-1.294 1.196-2.347 2.667-2.347s2.667 1.053 2.667 2.347v4.054h-5.334zm6.4-1.697v-2.358c0-1.882-1.675-3.413-3.734-3.413h-.058c-1.353 0-2.54.707-3.214 1.771l-.009.016a13.819 13.819 0 0 1-3.812-9.55c0-2.314.567-4.496 1.569-6.415l-.036.077 18.603 18.71c-1.823.947-3.98 1.502-6.266 1.502a13.9 13.9 0 0 1-3.136-.357l.093.018zm11.29-.684L7.837 2.039l.754-.752 7.936 7.98c.004 0 .006.007.01.01l13.115 13.192-.757.752z" style="fill:var(--color1, #212121)"/><path fill="#2196f3" d="M13.876 20.268h-.007a1.6 1.6 0 0 0-.003 3.2h.007a1.6 1.6 0 0 0 .002-3.2zm.374 1.978a.534.534 0 1 1-.378-.913.533.533 0 0 1 .374.911h.005z" style="fill:var(--color2, #2196f3)"/></symbol><symbol id="icon-astronaut" viewBox="0 0 32 32"><path fill="#2196f3" d="M31.976 4.524a.535.535 0 0 0-.427-.362h-.003l-1.911-.278-.855-1.731c-.179-.365-.777-.365-.956 0l-.855 1.731-1.911.278a.534.534 0 0 0-.296.91l1.384 1.348-.326 1.903a.532.532 0 0 0 .774.562l1.709-.899 1.709.899a.534.534 0 0 0 .773-.565v.003l-.326-1.903 1.383-1.348a.535.535 0 0 0 .134-.55l.001.004zm-2.463 1.328a.53.53 0 0 0-.153.472l.191 1.114-1-.526a.525.525 0 0 0-.501.001l.003-.001-1 .526.191-1.114a.53.53 0 0 0-.152-.472l-.811-.79L27.4 4.9a.532.532 0 0 0 .402-.292l.5-1.013.5 1.013a.532.532 0 0 0 .402.292l1.119.162-.809.79zm-3.378 14.671h-1.067v1.067h1.067v-1.067zm0 2.134h-1.067v1.066h1.067v-1.066zm1.067-1.067h-1.067v1.067h1.067V21.59zm-2.134 0h-1.067v1.067h1.067V21.59zm-2.667 4.801h-1.067v1.067h1.067v-1.067zm0 2.133h-1.067v1.067h1.067v-1.067zm1.067-1.066h-1.067v1.067h1.067v-1.067zm-2.133 0h-1.067v1.067h1.067v-1.067zm-5.334-3.201h-1.067v1.067h1.067v-1.067zm0 2.134h-1.067v1.067h1.067v-1.067zm1.066-1.067H16v1.067h1.067v-1.067zm-2.133 0h-1.067v1.067h1.067v-1.067zM5.867 6.122H4.8v1.067h1.067V6.122zm0 2.134H4.8v1.067h1.067V8.257zm1.066-1.067H5.866v1.067h1.067V7.189zm-2.133 0H3.733v1.067H4.8V7.189z" style="fill:var(--color2, #2196f3)"/><path fill="#212121" d="M24.716 14.16a1.776 1.776 0 0 0-1.179-.703l-.009-.001a1.769 1.769 0 0 0-1.344.355l.004-.003-1.253.96-1.898 1.417-1.358-.541c2.421-1.086 4.114-3.508 4.114-6.32 0-3.823-3.122-6.934-6.961-6.934S7.87 5.501 7.87 9.324c0 1.386.415 2.674 1.12 3.759l-2.769-.024c-.009 0-.016.005-.023.005a.511.511 0 0 0-.159.033l.004-.001c-.013.005-.026.007-.038.013-.006.003-.013.003-.019.006l-3.233 1.596-.001.001-1.893.91a.5.5 0 0 0-.065.036l.001-.001a1.782 1.782 0 0 0-.594 2.306l-.005-.01c.22.424.592.742 1.044.885l.013.003a1.772 1.772 0 0 0 1.388-.133l-.009.005 1.388-.738 2.264-1.169 1.357-.008-5.442 5.416-.001.001-1.339 1.333a1.643 1.643 0 0 0-.491 1.174v.005a1.668 1.668 0 0 0 1.667 1.664h.002a1.67 1.67 0 0 0 1.18-.485l1.314-1.309 1.741-1.3.901.897-3.102 3.089a1.643 1.643 0 0 0-.491 1.174v.004a1.662 1.662 0 0 0 1.667 1.664h.003a1.67 1.67 0 0 0 1.18-.485l4.489-4.473c.007-.006.016-.009.022-.016l5.166-5.658 3.471.494a.474.474 0 0 0 .262-.032c.017-.006.032-.015.049-.023.019-.01.039-.015.058-.027l3.213-2.133c.012-.008.018-.021.029-.03.013-.01.029-.014.041-.026l1.271-1.191c.348-.326.564-.787.564-1.3 0-.4-.132-.769-.355-1.067l.003.005zM2.13 17.771a.706.706 0 0 1-.564.05l.005.001a.717.717 0 0 1-.215-1.258l.002-.001 1.314-.632.316.924.133.389-.992.527zm3.498-1.828-1.548.8-.255-.747-.184-.537 2.027-1.001-.04 1.484zm15.1-6.62c0 .918-.219 1.785-.599 2.56l-4.182-1.9a1.865 1.865 0 0 0-.782-1.384l-.006-.004 1.464-4.861c2.377.757 4.104 2.975 4.104 5.588zm-11.789 0c0-3.235 2.644-5.867 5.895-5.867.253 0 .5.022.745.053l-1.432 4.753c-.019 0-.037-.006-.057-.006h-.001a1.872 1.872 0 0 0-1.872 1.867 1.872 1.872 0 0 0 1.872 1.867h.001c.695 0 1.295-.383 1.618-.944l3.863 1.755a5.891 5.891 0 0 1-4.737 2.39c-3.25 0-5.895-2.632-5.895-5.867zm5.957.8c0 .441-.362.8-.806.8h-.001a.804.804 0 0 1-.804-.8c0-.441.361-.8.806-.8s.806.359.806.8zM2.465 25.148a.606.606 0 0 1-.855.001.591.591 0 0 1 0-.844l.962-.959.852.848-.959.955zm3.213 3.733a.606.606 0 0 1-.855.001.591.591 0 0 1 0-.844l.963-.959.852.848-.96.955zm3.482-3.469-.001.001-1.765 1.76-.852-.848 1.765-1.757a.527.527 0 0 0 .09-.136c.007-.014.02-.026.026-.04.016-.041.019-.085.026-.128.003-.025.014-.048.014-.073 0-.035-.013-.07-.02-.105-.006-.032-.006-.064-.019-.096a.536.536 0 0 0-.092-.138c-.01-.012-.014-.027-.025-.038h-.001l-.001-.002-1.607-1.6c-.017-.017-.039-.024-.058-.038a.491.491 0 0 0-.084-.056l-.003-.001a.527.527 0 0 0-.09-.031l-.003-.001a.502.502 0 0 0-.101-.02h-.025a.603.603 0 0 0-.075.005h.003c-.036.005-.069.009-.104.021s-.064.027-.094.045c-.02.011-.043.015-.061.029l-1.774 1.324-.901-.897 2.399-2.386 4.36 4.289-.928.919zm6.82-7.017c-.016-.002-.03.004-.046.003l-.027-.001a.562.562 0 0 0-.092.008h.003a.484.484 0 0 0-.187.07l.002-.001a.492.492 0 0 0-.083.061c-.013.011-.028.016-.04.029l-4.698 5.146-4.328-4.257 2.833-2.818a.535.535 0 0 0-.378-.911h-.002l-2.219.013.028-1.607 3.104.027a6.929 6.929 0 0 0 4.979 2.101h.003c.438 0 .864-.046 1.28-.123.04.032.08.064.129.085l2.41.96.152.758.178.886-3.003-.427zm4.041.178-.313-1.558 1.446-1.08.946 1.257-2.08 1.382zm3.754-2.831-.838.785-.931-1.236.831-.637a.735.735 0 0 1 .543-.143.718.718 0 0 1 .621.71.71.71 0 0 1-.226.521z" style="fill:var(--color1, #212121)"/><path fill="#212121" d="m13.603 18.545-2.143-2.134a.53.53 0 0 0-.752 0l-2.143 2.134a.535.535 0 0 0 0 .756l2.142 2.134a.53.53 0 0 0 .753 0l2.143-2.134a.532.532 0 0 0 0-.756zm-2.519 1.759-1.387-1.381 1.387-1.381 1.387 1.381-1.387 1.381zm6.081-15.233-.258 1.036c.071.018 1.738.452 1.738 2.149h1.067c0-2.017-1.666-2.965-2.547-3.185zm2.547 4.252h-1.067v1.067h1.067V9.323z" style="fill:var(--color1, #212121)"/></symbol><symbol id="icon-clock" viewBox="0 0 32 32"><path fill="#212121" d="M31.298 15.302C31.297 6.849 24.443-.002 15.989 0S.685 6.856.687 15.309c.002 6.788 4.422 12.543 10.542 14.546l.108.031a.667.667 0 0 0 .529-.065.636.636 0 0 0 .283-.357l3.865-12.251a1.913 1.913 0 1 0-.852-3.63l.011-.005-5.106-5.107a.638.638 0 0 0-.902.902l5.103 5.109a1.847 1.847 0 0 0-.191.826c0 .602.283 1.137.723 1.48l.004.003-3.683 11.674C3.843 25.784.116 17.71 2.797 10.432S13.551-.573 20.83 2.108c7.278 2.681 11.005 10.754 8.324 18.033-1.345 3.581-4.003 6.407-7.374 7.939l-.088.036-.398-1.874a.639.639 0 0 0-1.05-.343l.001-.001-3.837 3.426a.637.637 0 0 0 .227 1.083l.005.001 4.899 1.564a.637.637 0 0 0 .818-.744l.001.004-.391-1.839c5.528-2.374 9.329-7.772 9.329-14.057v-.034.002zm-15.305-.637a.638.638 0 0 1 0 1.276.638.638 0 0 1 0-1.276zm2.1 14.864 2.184-1.948.603 2.84-2.787-.892z" style="fill:var(--color1, #212121)"/><path fill="#2196f3" d="M15.355 3.185v1.276a.638.638 0 0 0 1.276 0V3.185a.638.638 0 0 0-1.276 0zM3.876 14.665a.638.638 0 0 0 0 1.276h1.276a.638.638 0 0 0 0-1.276H3.876zM28.11 15.94a.638.638 0 0 0 0-1.276h-1.276a.638.638 0 0 0 0 1.276h1.276z" style="fill:var(--color2, #2196f3)"/></symbol><symbol id="icon-company1" viewBox="0 0 28 32"><path d="m4.087 0 4.772 4.517-8.857-.005v21.916h23.15v-8.38l4.766 4.512V-.001H4.087zm18.855 17.518L9.413 4.711h13.529v12.807zm-4.2 5.704H3.665V8.484h1.066v13.741h14.011v.997zM7.226 29.346l-.557 1.147-.557-1.147h-.467l.813 1.529v.891h.422v-.891l.811-1.529h-.465zm.7 2.421.196-.564h.938l.197.564h.439l-.916-2.421h-.378l-.914 2.421h.437zm.664-1.907.351 1.004H8.24l.351-1.004zm2.218.946a.544.544 0 0 0-.091.303v.004c0 .204.072.37.214.497s.336.19.575.19a1 1 0 0 0 .618-.195l.136.161h.468l-.355-.421c.14-.191.209-.435.209-.733h-.351a.973.973 0 0 1-.101.444l-.468-.552.165-.12a.922.922 0 0 0 .249-.249l.002-.003a.53.53 0 0 0 .076-.275v-.013a.495.495 0 0 0-.169-.374h-.001a.61.61 0 0 0-.408-.157h-.025.001c-.195 0-.35.056-.465.166s-.173.259-.173.449c0 .078.018.157.054.241.038.083.104.184.197.302-.179.129-.3.24-.36.334zm1.092.535a.613.613 0 0 1-.382.136h-.02a.395.395 0 0 1-.27-.106.36.36 0 0 1-.108-.259v-.014.001c0-.129.067-.245.2-.346l.052-.037.528.624zm-.433-1.072c-.114-.141-.172-.257-.172-.351 0-.081.024-.148.07-.201a.239.239 0 0 1 .178-.081h.01-.001.009c.067 0 .127.026.173.068a.214.214 0 0 1 .072.161v.009a.3.3 0 0 1-.103.226l-.052.041-.185.127zm3.939 1.315c.166-.145.261-.347.286-.605h-.419c-.022.173-.075.296-.158.37s-.208.112-.372.112c-.18 0-.318-.069-.412-.206s-.14-.337-.14-.599v-.214c.003-.259.052-.453.15-.587a.494.494 0 0 1 .422-.201c.157 0 .276.039.357.116s.133.202.153.376h.419c-.027-.265-.121-.47-.285-.615s-.378-.218-.645-.218a.978.978 0 0 0-.525.142.925.925 0 0 0-.345.396l-.002.006a1.396 1.396 0 0 0-.122.576v.03-.001.226c.003.223.045.418.125.587s.193.298.339.39a.955.955 0 0 0 .511.136c.276 0 .497-.072.663-.216zm2.472-.339c.082-.18.123-.388.123-.625v-.158c0-.216-.047-.421-.131-.605l.004.009a.932.932 0 0 0-.35-.406l-.004-.002c-.152-.095-.326-.143-.524-.143s-.372.048-.525.144a.939.939 0 0 0-.354.414c-.079.175-.125.38-.125.595v.032-.002.136c.001.232.043.436.126.613a.95.95 0 0 0 .356.411.98.98 0 0 0 .525.143.971.971 0 0 0 .526-.143.935.935 0 0 0 .352-.413zm-.45-1.369c.102.143.153.349.153.618v.126c0 .272-.05.48-.151.622a.49.49 0 0 1-.429.213h-.017a.5.5 0 0 1-.413-.217l-.001-.002c-.104-.145-.155-.351-.155-.617v-.14c.002-.26.054-.462.156-.603a.498.498 0 0 1 .409-.215h.018-.001c.187 0 .33.072.431.214z" /></symbol><symbol id="icon-company2" viewBox="0 0 25 32"><path d="M10.534 1.806h-.084a9.985 9.985 0 0 0-.388-.014h-.28c-.244 0-.494.006-.741.018l-.028-.001-.029.001h.001a17.36 17.36 0 0 0-6.577 1.697l.104-.045-.266.128v13.628l.623-.212a23.463 23.463 0 0 1 1.731-.513c1.489-.398 3.202-.638 4.968-.662h.014v1.79c-.223.001-.439.007-.655.018h-.052c-1.399.079-2.71.289-3.972.619l.139-.031a19.408 19.408 0 0 0-4.667 1.831l.1-.051V2.529A17.91 17.91 0 0 1 5.14.608L5.267.58a17.87 17.87 0 0 1 4.511-.582h.267c.315.008.622.022.91.044.83.06 1.598.187 2.34.379l-.09-.02v1.762a13.167 13.167 0 0 0-2.135-.326l-.045-.003-.044-.004c-.152-.013-.304-.026-.446-.026zm3.101 1.801c.391.03.796.044 1.205.044a19.375 19.375 0 0 0 4.882-.64l-.135.03a19.477 19.477 0 0 0 4.665-1.832l-.101.051v17.166a17.979 17.979 0 0 1-4.665 1.921l-.127.028a17.964 17.964 0 0 1-4.512.581h-.115c-1.177 0-2.319-.147-3.41-.425l.095.021V3.274c.265.062.537.118.814.164.455.077.934.133 1.401.167zm8.737.134-.623.209c-.572.193-1.151.365-1.731.518-1.551.415-3.333.657-5.17.663h-.004c-.406 0-.78-.011-1.141-.034l-.497-.033v14.019l.427.037c.395.035.803.052 1.214.052a16.511 16.511 0 0 0 4.19-.554l-.116.026a16.994 16.994 0 0 0 3.286-1.189l-.102.044.267-.128V3.739zM1.685 25.981a.916.916 0 0 0-.661-.281l-.034.001h.002-.014c-.139 0-.272.028-.393.078l.007-.003a.904.904 0 0 0-.51.512l-.002.006a1.003 1.003 0 0 0-.071.387v2.335c-.006.164.026.328.092.479a.83.83 0 0 0 .554.479c.114.031.231.048.349.048a.986.986 0 0 0 .968-.983v-.261h-.611V29c0 .07-.013.136-.037.198l.001-.004a.38.38 0 0 1-.089.132.426.426 0 0 1-.255.089.308.308 0 0 1-.286-.125l-.001-.001A.548.548 0 0 1 .612 29l.001-.024v.001-2.178a.74.74 0 0 1 .075-.349.31.31 0 0 1 .262-.143l.038.002H.987h.012c.107 0 .201.052.261.131l.001.001a.493.493 0 0 1 .101.3v.014-.001.202h.604v-.249c0-.143-.027-.28-.077-.406l.003.007a.955.955 0 0 0-.205-.329zm3.626-.026a1.051 1.051 0 0 0-1.058-.191.964.964 0 0 0-.557.512l-.002.006a1.08 1.08 0 0 0-.089.452v2.239a1.08 1.08 0 0 0 .089.459.888.888 0 0 0 .236.313.964.964 0 0 0 .322.197 1.049 1.049 0 0 0 1.059-.198l-.001.001a.948.948 0 0 0 .23-.313c.063-.144.093-.301.089-.459V26.713c0-.156-.033-.305-.092-.439l.003.007a1.016 1.016 0 0 0-.23-.327zm-.284 3.018.002.035a.398.398 0 0 1-.123.289.446.446 0 0 1-.575 0l.001.001a.4.4 0 0 1-.121-.326v.002-2.24L4.21 26.7c0-.114.047-.216.123-.289a.446.446 0 0 1 .575 0l-.001-.001a.398.398 0 0 1 .121.326v-.002 2.24zm5.047 1.001v-4.241h-.587l-.771 2.245h-.01l-.777-2.244h-.58v4.239h.606v-2.579h.011l.593 1.823h.302l.598-1.823h.01v2.579h.606zm3.441-3.943a.834.834 0 0 0-.342-.232 1.31 1.31 0 0 0-.416-.066h-.024.001-.9v4.241h.604v-1.656h.311c.189.009.376-.031.545-.116a.88.88 0 0 0 .329-.32l.002-.004a1.02 1.02 0 0 0 .139-.369c.021-.133.033-.287.033-.444v-.04.002a2.426 2.426 0 0 0-.059-.606.906.906 0 0 0-.223-.39zm-.311 1.293a.538.538 0 0 1-.057.224l.001-.003a.342.342 0 0 1-.154.147l-.002.001a.617.617 0 0 1-.254.054l-.033-.001h.002-.276v-1.441h.311l.029-.001c.088 0 .172.02.247.055l-.004-.002a.35.35 0 0 1 .141.154l.001.002a.62.62 0 0 1 .053.236v.282c0 .098.006.201 0 .291h-.006zm3.173-1.591h-.495l-.934 4.241h.604l.177-.911h.824l.178.911h.604l-.958-4.241zm-.557 2.752.297-1.537h.011l.295 1.537h-.604zm4.461-.197h-.011l-.912-2.554h-.581v4.241h.604v-2.55h.012l.923 2.549h.568v-4.239h-.604v2.554zm3.691-2.555-.486 1.686h-.012l-.486-1.686h-.639l.83 2.448v1.792h.604v-1.792l.83-2.448h-.64zM0 31.171h.291v.817h.198v-.817h.289v-.167H0v.168zm2.448-.168-.382.985h.21l.081-.224h.392l.084.224h.215l-.391-.985h-.21zm-.031.595.134-.365.134.365h-.268zm2.451.027h.228v.127a.373.373 0 0 1-.234.083h-.014a.25.25 0 0 1-.195-.094.406.406 0 0 1-.073-.234l.001-.023v.001c0-.219.095-.329.283-.329l.021-.001c.097 0 .178.067.201.157v.001l.194-.038c-.042-.192-.18-.289-.417-.289H4.85a.492.492 0 0 0-.331.127.48.48 0 0 0-.141.38v-.002.023c0 .132.048.254.127.347l-.001-.001c.087.09.209.146.343.146l.032-.001h-.001.016c.155 0 .296-.06.402-.157v-.388h-.427v.166zm2.471-.622H7.14v.985h.689v-.167h-.49v-.817zm2.089 0h-.199v.985h.199v-.985zm2.043.658-.404-.657h-.193v.985h.185v-.643l.396.643h.198v-.985h-.182v.658zm1.847-.107h.491v-.167h-.491v-.215h.527v-.168h-.727v.985h.747v-.167h-.548v-.267zm4.477-.162h-.388v-.388h-.197v.984h.197v-.431h.388v.431h.198v-.985h-.198v.388zm1.858.162h.492v-.167h-.492v-.215h.529v-.168h-.726v.985h.746v-.167h-.548v-.267zm2.519.001c.171-.027.259-.118.259-.274a.23.23 0 0 0-.096-.219h-.001a.555.555 0 0 0-.25-.059l-.04.001h.002-.417v.984h.198v-.412h.055c.039 0 .076.008.109.023l-.002-.001a.201.201 0 0 1 .07.072l.215.313h.236l-.12-.192a.704.704 0 0 0-.215-.235l-.002-.002zm-.199-.137h-.146v-.247h.156a.515.515 0 0 1 .205.024l-.004-.001a.13.13 0 0 1-.009.2.537.537 0 0 1-.164.025l-.039-.001h.002zm2.099.136h.49v-.167h-.49v-.215h.529v-.168h-.729v.985h.747v-.167h-.548v-.267z" /></symbol><symbol id="icon-company3" viewBox="0 0 34 32"><path d="M5.643 31.319c.012 0 .024.003.035.008s.021.011.03.018l.166.159c-.13.129-.289.232-.468.302a1.78 1.78 0 0 1-.62.109l-.045-.001h.002a1.751 1.751 0 0 1-.623-.101 1.365 1.365 0 0 1-.47-.286l.001.001a1.294 1.294 0 0 1-.301-.432l-.003-.008a1.442 1.442 0 0 1-.106-.548v-.018.001-.029c0-.388.168-.737.436-.977l.001-.001a1.52 1.52 0 0 1 .498-.287 1.96 1.96 0 0 1 .642-.101h.04c.199 0 .39.034.568.096l-.012-.004c.165.062.316.149.447.255l-.139.169a.143.143 0 0 1-.035.03h-.001a.098.098 0 0 1-.048.013H5.63a.132.132 0 0 1-.062-.018h.001l-.074-.046-.104-.058a1.182 1.182 0 0 0-.321-.1l-.007-.001a1.376 1.376 0 0 0-.23-.018h-.019.001H4.8c-.16 0-.313.028-.455.079l.009-.003a1.06 1.06 0 0 0-.363.214l.001-.001a.977.977 0 0 0-.235.339 1.117 1.117 0 0 0-.085.432v.017-.001.019c0 .157.031.307.088.444l-.003-.008a.953.953 0 0 0 .576.548c.136.049.281.073.427.072.085.001.17-.004.254-.014.211-.022.4-.106.55-.234l-.001.001a.133.133 0 0 1 .078-.029zm4.799-.798v.017c0 .197-.041.384-.116.554l.003-.009a1.23 1.23 0 0 1-.311.435l-.001.001c-.138.123-.302.22-.481.283l-.01.003a2.03 2.03 0 0 1-1.278-.004l.014.004a1.471 1.471 0 0 1-.489-.288l.001.001a1.28 1.28 0 0 1-.313-.432l-.003-.008a1.454 1.454 0 0 1 .004-1.134l-.004.01c.071-.165.178-.315.316-.442a1.45 1.45 0 0 1 .488-.277 2.003 2.003 0 0 1 1.278.004l-.014-.004c.184.065.351.162.49.287a1.296 1.296 0 0 1 .426 1zm-.436 0v-.024a1.19 1.19 0 0 0-.082-.436l.003.008a.935.935 0 0 0-.566-.548l-.007-.002a1.455 1.455 0 0 0-.928.003l.01-.003a.988.988 0 0 0-.352.214.914.914 0 0 0-.223.331l-.002.006a1.321 1.321 0 0 0 .003.911l-.003-.009c.101.261.309.46.57.547l.007.002c.296.097.622.097.918 0a.984.984 0 0 0 .351-.211.949.949 0 0 0 .223-.338c.056-.145.082-.298.079-.451zm3.71.473.043.101c.017-.036.031-.069.048-.101.019-.039.037-.072.056-.103l-.002.004 1.061-1.677c.021-.029.04-.047.061-.053s.047-.009.073-.009h.015-.001.314v2.728h-.372v-2.09a.68.68 0 0 1 0-.096v.002l-1.069 1.701a.158.158 0 0 1-.062.061h-.001a.19.19 0 0 1-.09.023h-.064a.183.183 0 0 1-.09-.023h.001a.15.15 0 0 1-.061-.061V31.4l-1.1-1.711v2.189h-.359v-2.722h.328c.026 0 .051.003.075.01h-.002c.026.011.046.03.058.053l1.084 1.679c.02.028.038.06.053.094l.001.004zm3.995-.135v1.021h-.415v-2.723h.927c.175-.003.349.018.517.059.134.034.259.091.366.17.089.07.159.16.205.262l.002.004c.05.111.073.23.071.349v.017a.755.755 0 0 1-.299.603l-.002.001a1.062 1.062 0 0 1-.368.18c-.14.04-.301.064-.468.064h-.035l-.501-.008zm0-.293h.503c.109.002.218-.013.322-.041a.69.69 0 0 0 .234-.119l-.002.001a.522.522 0 0 0 .191-.404v-.007l.001-.029a.453.453 0 0 0-.043-.195l.001.003a.529.529 0 0 0-.144-.185l-.001-.001a.888.888 0 0 0-.562-.146h.003-.503v1.122zm5.585 1.318h-.334a.15.15 0 0 1-.086-.026h.001a.169.169 0 0 1-.054-.062v-.001l-.282-.658h-1.42l-.293.658a.156.156 0 0 1-.141.088h-.333l1.247-2.728h.432l1.263 2.728zm-2.058-1.013h1.172l-.494-1.11a1.875 1.875 0 0 1-.094-.256l-.048.142a.876.876 0 0 1-.046.116l-.49 1.108zm3.853-1.702a.173.173 0 0 1 .062.048l1.818 2.057v-2.118h.372v2.728h-.212a.204.204 0 0 1-.082-.017h.001a.221.221 0 0 1-.066-.05l-1.816-2.054.001.047-.002.049v-.002 2.027h-.372v-2.728h.22c.025 0 .051.005.075.013zm5.314 1.63v1.083h-.415V30.8l-1.149-1.643h.381a.16.16 0 0 1 .081.023h-.001a.234.234 0 0 1 .056.062l.719 1.06a1.274 1.274 0 0 1 .128.242l.053-.117c.021-.043.044-.084.071-.124l.709-1.067a.293.293 0 0 1 .053-.058.137.137 0 0 1 .082-.027h.384l-1.151 1.65zm-16.894-6.22c.181.02.363.036.549.05 2.803-1.09 5.175-2.873 6.818-5.127s2.485-4.879 2.421-7.547l-3.09-2.684c.629 2.84.335 5.776-.848 8.479s-3.208 5.067-5.85 6.827z"/><path d="m12.408 24.454.083.015c2.822-1.755 4.973-4.204 6.177-7.032s1.402-5.905.571-8.831l-4.4-3.823c1.779 3.142 2.496 6.66 2.065 10.142-.43 3.482-1.989 6.786-4.496 9.528zm14.922-9.346c-.747 2.931-2.563 5.575-5.178 7.538a16.303 16.303 0 0 1-2.367 1.491l-.092.043c2.129-.543 4.085-1.504 5.719-2.809s2.901-2.918 3.703-4.714l-1.785-1.549z"/><path d="m26.63 14.677-2.54-2.207c-.049 2.517-.872 4.976-2.385 7.123s-3.661 3.903-6.218 5.085h.012c.57 0 1.139-.03 1.705-.088 2.39-.848 4.503-2.197 6.147-3.926s2.771-3.785 3.279-5.985zM12.775 3.171 9.744.535c-2.71.91-5.04 2.509-6.686 4.589S.527 9.667.518 12.191c.01 2.789 1.09 5.495 3.071 7.691 1.979 2.195 4.745 3.754 7.859 4.43 2.78-2.943 4.407-6.579 4.647-10.38s-.924-7.57-3.319-10.759zm20.859 11.1c-.011-3.309-1.529-6.479-4.221-8.819S23.07 1.794 19.262 1.784h-.028c-1.831 0-3.591.305-5.231.867l.114-.034L32.675 18.74c.605-1.313.958-2.85.96-4.468v-.001z"/></symbol><symbol id="icon-company4" viewBox="0 0 65 32"><path d="M10.016 9.986h-.002c-1.827 0-3.308 1.316-3.308 2.94v.002c0 1.624 1.481 2.94 3.308 2.94h.002c1.827 0 3.308-1.317 3.308-2.94v-.002c0-1.624-1.481-2.941-3.308-2.941zm24.419-.94c-.005-2.255-1.016-4.418-2.81-6.012S27.399.541 24.861.536c-2.539.004-4.972.902-6.767 2.497s-2.806 3.757-2.812 6.013v12.437s19.15-1.896 19.152-12.435v-.002zM0 25.565c.005 1.57.709 3.073 1.957 4.183s2.94 1.735 4.706 1.739c1.765-.005 3.457-.63 4.706-1.739s1.952-2.613 1.957-4.181v-8.654S.001 18.233.001 25.565zm6.662 1.549c-.345 0-.682-.091-.969-.261a1.617 1.617 0 0 1-.638-.686l-.004-.009a1.394 1.394 0 0 1-.097-.904l-.002.009a1.5 1.5 0 0 1 .477-.794 1.81 1.81 0 0 1 .882-.423l.011-.002a1.939 1.939 0 0 1 1.021.092l-.013-.004c.319.117.592.316.783.571s.294.555.294.861c.001.204-.043.407-.131.596a1.555 1.555 0 0 1-.376.503l-.002.001a1.77 1.77 0 0 1-.567.338 1.907 1.907 0 0 1-.668.119h-.001v-.006zm13.466-.853h-1.286v1.328h-.67v-3.251h2.117v.543h-1.447v.84h1.286v.54zm3.219-.223c0 .32-.056.6-.169.841s-.276.427-.488.558a1.32 1.32 0 0 1-.698.197h-.025.001c-.27 0-.511-.065-.722-.194a1.296 1.296 0 0 1-.487-.546l-.003-.008a1.882 1.882 0 0 1-.177-.804v-.028.001-.16c0-.32.058-.602.172-.844a1.285 1.285 0 0 1 1.212-.757c.271 0 .511.066.721.197.211.13.374.316.489.56.116.242.174.523.174.841v.145zm-.678-.148c0-.341-.061-.6-.183-.777a.596.596 0 0 0-.496-.266l-.028.001h.001l-.025-.001a.597.597 0 0 0-.494.262l-.001.002c-.122.174-.184.43-.185.768v.158c0 .331.061.589.183.772s.297.274.527.274l.026.001a.59.59 0 0 0 .49-.261l.001-.002c.12-.177.181-.434.183-.773v-.158zm2.849.846.001-.019a.34.34 0 0 0-.133-.27l-.001-.001c-.089-.069-.25-.14-.482-.214a3.473 3.473 0 0 1-.57-.232l.019.009c-.37-.2-.554-.469-.554-.806 0-.175.049-.332.147-.469a.975.975 0 0 1 .427-.324c.186-.077.395-.116.625-.116.232 0 .439.042.621.127a.97.97 0 0 1 .421.355.926.926 0 0 1 .152.522h-.671a.434.434 0 0 0-.14-.346c-.094-.084-.226-.125-.395-.125-.164 0-.291.035-.382.105a.325.325 0 0 0-.136.265v.008c0 .106.053.194.158.266.107.071.264.138.471.2.381.114.658.257.833.427s.261.381.261.634c0 .281-.107.503-.32.663s-.498.239-.859.239c-.25 0-.478-.046-.683-.137a1.11 1.11 0 0 1-.469-.373l-.002-.003a.962.962 0 0 1-.16-.533v-.022.001h.671c0 .358.214.538.643.538a.634.634 0 0 0 .373-.096.32.32 0 0 0 .134-.259v-.013.001zm3.575-1.855h-.995v2.708h-.671v-2.708h-.981v-.543h2.647v.543zm2.339 1.299h-1.285v.871h1.509v.538h-2.178v-3.251h2.175v.543h-1.505v.775h1.286v.524zm1.819.219h-.533v1.19h-.67v-3.251h1.208c.384 0 .68.086.888.257s.312.413.312.725a.996.996 0 0 1-.145.556.977.977 0 0 1-.429.35l-.006.002.703 1.328v.03h-.718l-.61-1.189zm-.533-.543h.541c.168 0 .297-.042.39-.126a.46.46 0 0 0 .139-.33l-.001-.026v.001c0-.154-.043-.274-.131-.362s-.219-.132-.4-.132h-.538v.975zm4.058.588v1.145h-.67v-3.251h1.268c.244 0 .459.045.643.134a.98.98 0 0 1 .429.382c.099.164.149.351.149.56 0 .318-.11.57-.328.754-.218.183-.519.275-.904.275h-.587zm0-.543h.598c.178 0 .312-.042.404-.125a.454.454 0 0 0 .141-.357l.001-.024a.534.534 0 0 0-.141-.363.527.527 0 0 0-.389-.152h-.614v1.021zm4.236.279h-1.285v.871h1.509v.538h-2.178v-3.251h2.175v.543h-1.505v.775h1.286v.524zm3.108-1.299h-.996v2.708h-.67v-2.708h-.982v-.543h2.648v.543zm2.339 1.299h-1.285v.871h1.509v.538h-2.179v-3.251h2.175v.543h-1.504v.775h1.285v.524zm1.82.219h-.533v1.19h-.67v-3.251h1.208c.384 0 .68.086.888.257s.312.413.312.725c0 .222-.049.408-.145.556a.982.982 0 0 1-.429.35l-.006.002.703 1.328v.03h-.718l-.61-1.189zm-.534-.543h.54c.168 0 .298-.042.39-.126a.46.46 0 0 0 .139-.331l-.001-.025v.001a.484.484 0 0 0-.132-.362c-.086-.088-.219-.132-.399-.132h-.538v.975zm3.935.88.001-.019a.34.34 0 0 0-.134-.271l-.001-.001c-.089-.069-.25-.14-.482-.214a3.473 3.473 0 0 1-.57-.232l.019.009c-.37-.2-.554-.469-.554-.806 0-.175.05-.332.147-.469a.975.975 0 0 1 .427-.324c.186-.077.395-.116.625-.116.232 0 .439.042.621.127a.97.97 0 0 1 .421.355.926.926 0 0 1 .152.522h-.67a.434.434 0 0 0-.14-.346c-.094-.084-.226-.125-.395-.125-.164 0-.291.035-.382.105a.326.326 0 0 0-.137.265v.007c0 .106.053.194.159.266s.264.138.471.2c.381.114.658.257.833.427s.261.381.261.634c0 .281-.107.503-.32.663s-.499.239-.859.239c-.25 0-.478-.046-.683-.137a1.11 1.11 0 0 1-.469-.373l-.002-.003a.962.962 0 0 1-.16-.533v-.022.001h.671c0 .358.214.538.643.538a.634.634 0 0 0 .373-.096.317.317 0 0 0 .134-.26v-.013.001z"/></symbol><symbol id="icon-company5" viewBox="0 0 43 32"><path d="M3.239 26.375a.98.98 0 0 1 .25.665.964.964 0 0 1-.092.466L3.4 27.5a1.057 1.057 0 0 1-.296.378l-.002.002a1.776 1.776 0 0 1-1.13.306h.006H0v-4.215h1.937a1.76 1.76 0 0 1 1.08.283l-.007-.004a.981.981 0 0 1 .289.354.893.893 0 0 1 .086.436.92.92 0 0 1-.225.644 1.077 1.077 0 0 1-.59.33c.262.044.499.172.667.361zM.92 25.739h.828a.841.841 0 0 0 .526-.14.516.516 0 0 0 .14-.184l.001-.003a.46.46 0 0 0 .038-.185l-.002-.042v.002l.001-.035a.475.475 0 0 0-.04-.192l.001.003a.51.51 0 0 0-.138-.187l-.001-.001a.847.847 0 0 0-.545-.142h.003-.815v1.107zm1.435 1.617a.527.527 0 0 0 .151-.19l.001-.003a.472.472 0 0 0 .044-.202l-.001-.035v.002l.001-.031a.49.49 0 0 0-.047-.21l.001.003a.534.534 0 0 0-.154-.193l-.001-.001a.898.898 0 0 0-.565-.152h.003H.92v1.16h.88a.94.94 0 0 0 .556-.146zm4.843.832L6.121 26.54h-.405v1.648h-.927v-4.216h1.755a1.83 1.83 0 0 1 1.226.362l-.005-.003a1.293 1.293 0 0 1 .42.938c0 .307-.109.589-.291.808l.002-.002a1.461 1.461 0 0 1-.829.427l-.008.001 1.147 1.685H7.198zm-1.482-2.223h.758c.526 0 .79-.212.79-.638l.001-.034a.58.58 0 0 0-.045-.225l.001.004a.628.628 0 0 0-.15-.218.865.865 0 0 0-.6-.171h.003-.767l.009 1.283zm6.548 1.374h-1.847l-.326.849h-.972l1.696-4.169h1.051l1.689 4.169h-.971l-.319-.848zm-.247-.638-.675-1.779-.675 1.779h1.35zm6.588 1.487h-.919l-2.063-2.867v2.867h-.918v-4.216h.918l2.063 2.884v-2.884h.919v4.216zm5.251-1.009c-.191.318-.48.577-.833.744a2.883 2.883 0 0 1-1.219.267l-.079-.001h.004-1.637v-4.216h1.638l.077-.001c.441 0 .859.096 1.235.267l-.019-.008c.352.163.642.419.832.735.189.343.288.722.288 1.107s-.099.763-.288 1.106zm-1.053-.101c.25-.261.404-.616.407-1.006 0-.369-.144-.726-.407-1.006a1.681 1.681 0 0 0-1.157-.358h.005-.639v2.729h.639a1.688 1.688 0 0 0 1.156-.361l-.004.003zM12.84.521s11.875 4.105 11.623 10.045v10.047s-11.866-4.106-11.619-10.047L12.84.521zM35.042 18.26a17.222 17.222 0 0 1 7.545-2.545v-3.146c-3.12 1.102-5.768 3.098-7.545 5.691z"/><path d="M33.695 19.208c1.835-3.384 5.017-5.996 8.892-7.298V2.848S25.675 8.695 26.033 17.154v14.304s.754-.262 1.939-.752c0-.457 0-.919.054-1.382.349-3.926 2.388-7.565 5.668-10.117z" /><path d="M32.087 24.522c.089-.992.287-1.973.592-2.929-2.043 2.203-3.279 4.937-3.536 7.817-.025.272-.039.543-.045.824a46.951 46.951 0 0 0 3.525-1.703l-.273.133a13.573 13.573 0 0 1-.263-4.142zm.672.051a13.013 13.013 0 0 0 .224 3.835l-.015-.084c4.62-2.532 9.813-6.443 9.612-11.17v-.412c-3.301.338-6.389 1.66-8.791 3.761a12.78 12.78 0 0 0-1.026 4.02l-.004.051z"/></symbol><symbol id="icon-company6" viewBox="0 0 67 32"><path d="M33.726 15.225a2.084 2.084 0 0 1-.43-1.42v.006-2.051c0-.628.142-1.106.428-1.433.284-.327.774-.489 1.469-.488.652 0 1.116.139 1.389.417.299.355.444.789.411 1.226v.482h-1.166v-.489a2.465 2.465 0 0 0-.034-.477.464.464 0 0 0-.166-.283l-.001-.001a.672.672 0 0 0-.373-.112l-.052.002h.002a.712.712 0 0 0-.447.118l.003-.002a.55.55 0 0 0-.193.309l-.001.004a2.28 2.28 0 0 0-.047.467v.042-.002 2.488c-.019.24.033.48.149.698a.55.55 0 0 0 .23.168l.004.001a.633.633 0 0 0 .305.039h-.003a.63.63 0 0 0 .414-.114l-.002.001a.503.503 0 0 0 .174-.299v-.003c.027-.165.04-.332.036-.498v-.505h1.167v.461a1.866 1.866 0 0 1-.406 1.293l.003-.004c-.268.304-.725.457-1.397.457s-1.179-.163-1.466-.501zm4.859.021c-.295-.32-.442-.784-.442-1.4v-2.157c0-.609.147-1.07.442-1.383s.787-.469 1.478-.467c.686 0 1.176.156 1.471.467.294.313.444.774.444 1.383v2.156c0 .609-.149 1.077-.449 1.398s-.787.481-1.466.481-1.181-.163-1.479-.479zm2.022-.517c.106-.199.154-.419.14-.638V11.45a1.18 1.18 0 0 0-.14-.632l.003.006a.558.558 0 0 0-.234-.17l-.004-.001a.622.622 0 0 0-.312-.037h.003a.643.643 0 0 0-.313.038l.004-.002a.569.569 0 0 0-.239.171l-.001.001c-.107.195-.154.41-.14.626v2.653c-.014.22.033.439.14.639a.732.732 0 0 0 .246.158.832.832 0 0 0 .605-.002l-.006.002a.723.723 0 0 0 .246-.158v-.013zm2.776-4.826h1.256l.944 3.979.967-3.979h1.222l.124 5.743h-.904l-.097-3.992-.932 3.992h-.725l-.966-4.007-.09 4.007h-.913l.114-5.743zm5.921 0h1.957c1.127 0 1.691.543 1.691 1.631 0 1.041-.594 1.562-1.781 1.56h-.666v2.552h-1.208l.007-5.744zm1.672 2.454a.93.93 0 0 0 .665-.182.928.928 0 0 0 .174-.649l.001-.063c0-.163-.022-.321-.062-.471l.003.013a.43.43 0 0 0-.089-.158.502.502 0 0 0-.149-.114l-.003-.001a1.24 1.24 0 0 0-.476-.094l-.066.002h.003-.469v1.717h.469zm3.718-2.454h1.297l1.331 5.743h-1.126l-.263-1.324h-1.157l-.27 1.324h-1.143l1.331-5.743zm1.109 3.754-.452-2.411-.452 2.411h.903zm2.594-3.754h.846l1.618 3.276V9.903h1.003v5.743h-.804l-1.629-3.421v3.421h-1.036l.002-5.743zm5.815 3.553-1.346-3.545H64l.821 2.278.77-2.278H66.7l-1.329 3.546v2.19h-1.159v-2.19zm-28.62 4.702v.3h-.986v2.334h-.413v-2.334h-.991v-.3h2.389zm3.089 2.634h-.328a.141.141 0 0 1-.081-.025.137.137 0 0 1-.052-.06v-.001l-.285-.626h-1.368l-.284.626a.168.168 0 0 1-.044.071.144.144 0 0 1-.082.025h-.326l1.208-2.634h.42l1.223 2.624zm-2-.978h1.14l-.484-1.072a1.765 1.765 0 0 1-.086-.235l-.003-.014-.045.14-.044.11-.478 1.07zm4.083.719c.076.004.151.004.228 0a1.41 1.41 0 0 0 .193-.031c.059-.012.117-.028.174-.048.053-.018.107-.042.161-.065v-.592h-.487a.095.095 0 0 1-.061-.022.06.06 0 0 1-.018-.021.048.048 0 0 1-.006-.024V19.525h.937v1.01a1.792 1.792 0 0 1-.496.211l-.013.003c-.1.026-.2.043-.302.055a3.774 3.774 0 0 1-.353.016h-.015c-.212 0-.416-.036-.606-.102l.013.004a1.499 1.499 0 0 1-.486-.277l.002.002a1.276 1.276 0 0 1-.308-.409l-.003-.008a1.3 1.3 0 0 1-.111-.529v-.019.001-.016c0-.193.04-.377.112-.543l-.003.009c.069-.156.176-.299.311-.417.138-.119.302-.211.484-.273.206-.068.427-.101.647-.098.112 0 .225.007.336.023a1.62 1.62 0 0 1 .529.172c.074.041.144.087.211.137l-.116.163a.101.101 0 0 1-.039.035h-.001a.112.112 0 0 1-.055.014.156.156 0 0 1-.075-.021h.001a1.595 1.595 0 0 1-.126-.066l.007.004a1.098 1.098 0 0 0-.154-.069l-.008-.002a1.522 1.522 0 0 0-.213-.057l-.009-.001a1.749 1.749 0 0 0-.29-.023h-.017.001-.015c-.162 0-.317.027-.462.076l.01-.003a1.022 1.022 0 0 0-.356.208.944.944 0 0 0-.222.321l-.002.006a1.234 1.234 0 0 0 .003.887l-.003-.008a.938.938 0 0 0 .242.332c.099.09.219.161.352.208.154.046.316.063.479.052zm3.851-.041h1.319v.3h-1.722v-2.634h.412l-.009 2.334zm2.691.3h-.412v-2.634h.412v2.634zm1.536-2.622a.2.2 0 0 1 .063.047l1.766 1.986-.002-.047.002-.049v.002-1.963h.36v2.645h-.222a.196.196 0 0 1-.077-.016h.001a.23.23 0 0 1-.065-.05l-1.764-1.984v2.048h-.346v-2.634h.215c.023 0 .047.004.068.012zm5.231-.012v.289h-1.464v.87h1.186v.279h-1.186v.9h1.464v.289h-1.889v-2.628h1.889zM10.782 1.889l18.344 4.497v15.758L10.782 17.65V1.89zM9.605.545v17.869l20.694 5.075V5.622L9.605.546z"/><path d="M20.697 31.783 0 26.704V8.838l20.697 5.077v17.868z"/><path d="m9.949 1.687 18.104 4.44-7.699 6.649L2.246 8.333l7.702-6.648zM9.605.546 0 8.838l20.697 5.078L30.3 5.622 9.606.547zm12.256 30.232 8.439-7.289-8.44-2.069v9.359z"/></symbol><symbol id="icon-diagram" viewBox="0 0 32 32"><path fill="#2196f3" d="M14.927 14.965h1.066v4.798h-1.066v-4.798zm4.264 2.133h1.066v2.665h-1.066v-2.665zm-8.529 1.599h1.066v1.066h-1.066v-1.066zm-3.199-.533h1.066v1.599H7.463v-1.599z" style="fill:var(--color2, #2196f3)"/><path fill="#212121" d="M1.599 28.292h25.588a1.6 1.6 0 0 0 1.599-1.599v-2.132a1.6 1.6 0 0 0-1.599-1.599h-.533V9.668L29.682 6.8a1.608 1.608 0 1 0-.742-.752l-.004-.01L26.655 8.2V6.97a1.6 1.6 0 0 0-1.599-1.599H3.732A1.6 1.6 0 0 0 2.133 6.97v15.993H1.6a1.6 1.6 0 0 0-1.599 1.599v2.132A1.6 1.6 0 0 0 1.6 28.293zM30.386 4.837a.533.533 0 0 1 0 1.066.533.533 0 0 1 0-1.066zM3.198 6.969c0-.294.239-.533.533-.533h21.324c.294 0 .533.239.533.533v2.239l-1.066 1.013V8.036a.534.534 0 0 0-.534-.534H4.797a.534.534 0 0 0-.534.533v13.327c0 .294.239.533.534.533h19.191a.534.534 0 0 0 .534-.533v-9.675l1.066-1.01v12.284H3.198V6.969zm4.798 6.93h-.005a1.6 1.6 0 1 0 1.112 2.748l1.853.93a.533.533 0 0 0 .636-.123l3.939-4.432 3.872 2.902a.534.534 0 0 0 .686-.039l3.365-3.188v8.132H5.329V8.568h18.125v2.661l-3.772 3.572-3.904-2.927a.534.534 0 0 0-.718.071v.001l-3.993 4.493-1.493-.747c.011-.064.017-.128.02-.193A1.6 1.6 0 0 0 7.995 13.9zm.533 1.599a.533.533 0 0 1-1.066 0 .533.533 0 0 1 1.066 0zm3.199 8.53h5.331v.533a.533.533 0 0 1-.533.533h-4.265a.533.533 0 0 1-.533-.533v-.533zm-10.661.533c0-.294.238-.533.533-.533h9.062v.533a1.6 1.6 0 0 0 1.599 1.599h4.265a1.6 1.6 0 0 0 1.599-1.599v-.533h9.062c.294 0 .533.239.533.533v2.132a.533.533 0 0 1-.533.533H1.599a.533.533 0 0 1-.533-.533v-2.132z" style="fill:var(--color1, #212121)"/></symbol><symbol id="icon-facebook" viewBox="0 0 32 32"><path d="M21.332 5.313h2.924V.224A36.51 36.51 0 0 0 20.148 0h-.156H20c-4.214 0-7.101 2.65-7.101 7.522v4.481H8.252v5.689h4.647v14.315h5.7V17.694h4.46l.707-5.689h-5.169V8.083c0-1.644.443-2.769 2.735-2.769z"/></symbol><symbol id="icon-instagram" viewBox="0 0 32 32"><path d="M31.975 9.41c-.074-1.701-.349-2.869-.743-3.882a7.843 7.843 0 0 0-1.85-2.838l-.001-.001A7.887 7.887 0 0 0 26.602.862l-.054-.018C25.529.45 24.367.177 22.666.101 20.954.019 20.41 0 16.063 0c-4.345 0-4.889.019-6.597.094-1.7.074-2.869.349-3.881.743a7.847 7.847 0 0 0-2.839 1.85l-.001.001A7.877 7.877 0 0 0 .92 5.467l-.018.054C.507 6.54.233 7.702.158 9.403c-.082 1.712-.101 2.256-.101 6.603 0 4.345.019 4.889.094 6.597.075 1.701.35 2.869.744 3.882a7.936 7.936 0 0 0 1.849 2.838l.001.001c.8.813 1.77 1.444 2.833 1.844 1.019.395 2.183.671 3.882.744 1.708.075 2.252.094 6.597.094 4.346 0 4.891-.019 6.597-.094 1.701-.074 2.869-.349 3.882-.743a8.234 8.234 0 0 0 4.665-4.629l.019-.055c.394-1.019.669-2.183.744-3.882.075-1.708.093-2.252.093-6.597s-.006-4.889-.08-6.597zm-2.881 13.068c-.07 1.564-.333 2.407-.55 2.97a5.339 5.339 0 0 1-3.005 3.025l-.036.012c-.56.219-1.412.482-2.969.55-1.688.075-2.194.094-6.465.094-4.27 0-4.783-.019-6.465-.094-1.564-.069-2.407-.331-2.97-.55a4.935 4.935 0 0 1-1.836-1.193l-.001-.001a4.987 4.987 0 0 1-1.184-1.803l-.011-.034c-.218-.563-.48-1.413-.549-2.97-.075-1.688-.094-2.196-.094-6.465 0-4.271.019-4.785.094-6.465.069-1.564.331-2.407.549-2.97a4.887 4.887 0 0 1 1.199-1.837l.002-.002a4.975 4.975 0 0 1 1.806-1.183l.034-.011c.56-.219 1.412-.48 2.969-.55 1.688-.074 2.196-.093 6.465-.093 4.276 0 4.783.019 6.465.093 1.564.069 2.407.331 2.97.55a4.922 4.922 0 0 1 1.837 1.194c.531.52.938 1.144 1.195 1.84.218.56.48 1.412.549 2.969.075 1.688.094 2.194.094 6.465 0 4.27-.019 4.769-.094 6.459z"/><path d="M16.062 7.784a8.224 8.224 0 0 0-8.221 8.222v.002a8.224 8.224 0 1 0 8.224-8.224h-.002zm0 13.555a5.334 5.334 0 0 1 .001-10.668h.001a5.335 5.335 0 1 1 0 10.67zM26.53 7.459a1.92 1.92 0 1 1-3.84 0 1.92 1.92 0 1 1 3.84 0z"/></symbol><symbol id="icon-linkedin" viewBox="0 0 32 32"><path d="M31.999 32.007h.008v-11.74c0-5.742-1.237-10.165-7.949-10.165-3.228 0-5.393 1.77-6.278 3.45h-.093v-2.914h-6.366v21.368h6.629v-10.58c0-2.786.528-5.481 3.978-5.481 3.399 0 3.449 3.18 3.449 5.659v10.404h6.622zM.528 10.637h6.637v21.369H.528V10.637zM3.844 0A3.844 3.844 0 0 0 0 3.844c0 2.12 1.722 3.879 3.844 3.879 2.12 0 3.842-1.757 3.842-3.879S5.966.002 3.844 0z"/></symbol><symbol id="icon-mail" viewBox="0 0 43 32"><path d="M38.684-.007H4.001A4.007 4.007 0 0 0-.001 3.995v24.011a4.007 4.007 0 0 0 4.002 4.002h34.683a4.007 4.007 0 0 0 4.002-4.002V3.995a4.007 4.007 0 0 0-4.002-4.002zm0 2.668c.181 0 .355.037.512.104L21.342 18.239 3.488 2.765c.151-.065.327-.104.512-.104h34.683zm0 26.679H4.001a1.334 1.334 0 0 1-1.334-1.334V5.582l17.8 15.428a1.33 1.33 0 0 0 1.752-.002l-.002.001 17.8-15.428v22.424c0 .737-.597 1.334-1.334 1.334z" /></symbol><symbol id="icon-smartphone" viewBox="0 0 20 32"><path d="M17.005 0H2.999A3.005 3.005 0 0 0-.002 3.001v26.012a3.005 3.005 0 0 0 3.001 3.001h14.006a3.005 3.005 0 0 0 3.001-3.001V3.001A3.005 3.005 0 0 0 17.005 0zM2.999 2.001h14.006a1 1 0 0 1 1 1v21.01H1.998V3.001a1 1 0 0 1 1-1zm14.006 28.013H2.999a1 1 0 0 1-1-1v-3.001h16.007v3.001a1 1 0 0 1-1 1z"/></symbol><symbol id="icon-twitter" viewBox="0 0 32 32"><path d="M32.007 6.08c-1.1.493-2.377.857-3.714 1.028l-.068.007a6.561 6.561 0 0 0 2.874-3.58l.013-.046a12.872 12.872 0 0 1-4.077 1.573l-.084.014A6.56 6.56 0 0 0 15.603 9.56v.004c0 .52.043 1.021.152 1.496-5.456-.266-10.282-2.881-13.524-6.862a6.535 6.535 0 0 0-.903 3.313v.001a6.57 6.57 0 0 0 2.914 5.452 6.457 6.457 0 0 1-2.995-.823l.033.017v.072a6.594 6.594 0 0 0 5.214 6.442l.043.008a6.41 6.41 0 0 1-1.663.215h-.061.003c-.419 0-.843-.024-1.242-.112.85 2.599 3.261 4.51 6.131 4.571a13.098 13.098 0 0 1-8.124 2.801h-.013.001-.062c-.532 0-1.055-.034-1.569-.099l.061.006c2.827 1.846 6.288 2.945 10.006 2.945h.063-.003c12.074 0 18.676-10.002 18.676-18.673 0-.288-.01-.57-.024-.848a13.207 13.207 0 0 0 3.259-3.355l.03-.047z"/></symbol></defs></svg>